<svg width="39" height="39" viewBox="0 0 39 39" fill="none" xmlns="http://www.w3.org/2000/svg">
<path d="M0.472534 19.2364C0.472534 18.7145 0.896686 18.2914 1.4199 18.2914H5.20938C5.73259 18.2914 6.15674 18.7145 6.15674 19.2364C6.15674 19.7583 5.73259 20.1814 5.20938 20.1814H1.4199C0.896686 20.1814 0.472534 19.7583 0.472534 19.2364Z" fill="#51A4FF"/>
<path d="M32.6831 19.2364C32.6831 18.7145 33.1072 18.2914 33.6304 18.2914H37.4199C37.9431 18.2914 38.3673 18.7145 38.3673 19.2364C38.3673 19.7583 37.9431 20.1814 37.4199 20.1814H33.6304C33.1072 20.1814 32.6831 19.7583 32.6831 19.2364Z" fill="#51A4FF"/>
<path d="M2.84096 28.5598C2.57935 28.1078 2.7346 27.5299 3.18772 27.2689L6.4695 25.3789C6.92262 25.118 7.50202 25.2728 7.76363 25.7248C8.02523 26.1768 7.86998 26.7548 7.41686 27.0157L4.13508 28.9057C3.68197 29.1667 3.10256 29.0118 2.84096 28.5598Z" fill="#51A4FF"/>
<path d="M30.7361 12.4948C30.4745 12.0428 30.6297 11.4649 31.0829 11.2039L34.3646 9.31393C34.8177 9.05297 35.3972 9.20784 35.6588 9.65982C35.9204 10.1118 35.7651 10.6898 35.312 10.9507L32.0302 12.8407C31.5771 13.1017 30.9977 12.9468 30.7361 12.4948Z" fill="#51A4FF"/>
<path d="M9.81918 35.7739C9.36606 35.513 9.21081 34.935 9.47242 34.4831L11.3672 31.2095C11.6288 30.7575 12.2082 30.6026 12.6613 30.8636C13.1144 31.1245 13.2697 31.7025 13.0081 32.1545L11.1133 35.4281C10.8517 35.88 10.2723 36.0349 9.81918 35.7739Z" fill="#51A4FF"/>
<path d="M25.9244 7.94855C25.4713 7.6876 25.3161 7.10964 25.5777 6.65766L27.4724 3.38408C27.734 2.9321 28.3134 2.77723 28.7666 3.03819C29.2197 3.29914 29.3749 3.8771 29.1133 4.32908L27.2186 7.60266C26.957 8.05464 26.3776 8.20951 25.9244 7.94855Z" fill="#51A4FF"/>
<path d="M19.42 38.1364C18.8968 38.1364 18.4726 37.7133 18.4726 37.1914V33.4114C18.4726 32.8895 18.8968 32.4664 19.42 32.4664C19.9432 32.4664 20.3674 32.8895 20.3674 33.4114V37.1914C20.3674 37.7133 19.9432 38.1364 19.42 38.1364Z" fill="#51A4FF"/>
<path d="M19.42 6.00643C18.8968 6.00643 18.4726 5.58333 18.4726 5.06143V1.28143C18.4726 0.759517 18.8968 0.336426 19.42 0.336426C19.9432 0.336426 20.3674 0.759517 20.3674 1.28143V5.06143C20.3674 5.58333 19.9432 6.00643 19.42 6.00643Z" fill="#51A4FF"/>
<path d="M2.84095 9.65982C3.10256 9.20784 3.68196 9.05298 4.13508 9.31393L7.41686 11.2039C7.86998 11.4649 8.02523 12.0428 7.76363 12.4948C7.50202 12.9468 6.92262 13.1017 6.4695 12.8407L3.18772 10.9507C2.7346 10.6898 2.57935 10.1118 2.84095 9.65982Z" fill="#51A4FF"/>
<path d="M30.7361 25.7248C30.9977 25.2728 31.5771 25.118 32.0302 25.3789L35.312 27.2689C35.7651 27.5299 35.9204 28.1078 35.6588 28.5598C35.3972 29.0118 34.8177 29.1667 34.3646 28.9057L31.0828 27.0157C30.6297 26.7548 30.4745 26.1768 30.7361 25.7248Z" fill="#51A4FF"/>
<path d="M10.0731 2.69892C10.5263 2.43797 11.1057 2.59283 11.3673 3.04482L13.262 6.31839C13.5236 6.77038 13.3684 7.34833 12.9152 7.60928C12.4621 7.87024 11.8827 7.71538 11.6211 7.26339L9.72638 3.98981C9.46477 3.53783 9.62002 2.95988 10.0731 2.69892Z" fill="#51A4FF"/>
<path d="M26.1784 30.5243C26.6315 30.2634 27.2109 30.4182 27.4725 30.8702L29.3673 34.1438C29.6289 34.5958 29.4736 35.1737 29.0205 35.4347C28.5674 35.6956 27.988 35.5408 27.7264 35.0888L25.8316 31.8152C25.57 31.3632 25.7253 30.7853 26.1784 30.5243Z" fill="#51A4FF"/>
</svg>
