<svg width="14" height="14" viewBox="0 0 16 14" fill="current" xmlns="http://www.w3.org/2000/svg">
    <path d="M5.78116 10.4688L5.78151 10.4685L13.8422 2.40833C13.8423 2.40828 13.8423 2.40824 13.8424 2.4082C13.9198 2.33053 14.0117 2.2689 14.113 2.22683C14.2143 2.18475 14.3229 2.16309 14.4327 2.16309C14.5424 2.16309 14.651 2.18475 14.7523 2.22683C14.8536 2.26889 14.9455 2.3305 15.0229 2.40815M5.78116 10.4688L15.0227 3.58755C15.1002 3.51018 15.1617 3.4183 15.2037 3.31714C15.2457 3.2159 15.2673 3.10737 15.2673 2.99775C15.2673 2.88814 15.2457 2.77961 15.2037 2.67837C15.1617 2.5773 15.1003 2.48548 15.0229 2.40815M5.78116 10.4688C5.75019 10.4999 5.71338 10.5246 5.67286 10.5414L5.76875 10.7723L5.67285 10.5414C5.63233 10.5583 5.58888 10.5669 5.54499 10.5669C5.5011 10.5669 5.45765 10.5583 5.41713 10.5414L5.32123 10.7723L5.41712 10.5414C5.3766 10.5246 5.33979 10.4999 5.30882 10.4688L5.30856 10.4686L2.19149 7.34858C2.19148 7.34856 2.19147 7.34855 2.19145 7.34854C2.11404 7.27083 2.02204 7.20916 1.92073 7.16708C1.81942 7.125 1.71078 7.10334 1.60107 7.10334C1.49136 7.10334 1.38273 7.125 1.28141 7.16708C1.18025 7.20911 1.08836 7.27066 1.01101 7.34823M5.78116 10.4688L15.0225 3.58775L6.96221 11.6463L6.96206 11.6464C6.58622 12.0216 6.07689 12.2323 5.54587 12.2323C5.01484 12.2323 4.50551 12.0216 4.12967 11.6464L4.12952 11.6463L1.01135 8.52871C1.01132 8.52868 1.01129 8.52865 1.01126 8.52862C0.933575 8.45122 0.87193 8.35924 0.829862 8.25796L1.06074 8.16206L0.829862 8.25796C0.787777 8.15664 0.766113 8.04801 0.766113 7.9383C0.766113 7.82858 0.787777 7.71995 0.829862 7.61864C0.871883 7.51747 0.933439 7.42558 1.01101 7.34823M15.0229 2.40815C15.023 2.40821 15.023 2.40827 15.0231 2.40833L14.8459 2.58475L15.0225 2.40776C15.0226 2.40789 15.0228 2.40802 15.0229 2.40815ZM1.01101 7.34823C1.01112 7.34811 1.01124 7.34799 1.01135 7.34788L1.18778 7.525L1.01066 7.34858C1.01077 7.34846 1.01089 7.34834 1.01101 7.34823Z" fill="#5585FF" stroke="#5585FF" stroke-width="0.5"/>
</svg>
